<?xml version="1.0" encoding="utf-8"?>
<!-- Generator: Adobe Illustrator 27.9.0, SVG Export Plug-In . SVG Version: 6.00 Build 0)  -->
<svg version="1.1" id="Layer_1" xmlns="http://www.w3.org/2000/svg" xmlns:xlink="http://www.w3.org/1999/xlink" x="0px" y="0px"
	 viewBox="0 0 50 50" style="enable-background:new 0 0 50 50;" xml:space="preserve">
<style type="text/css">
	.st0{fill:#F8981D;}
	.st1{fill:#FFFFFF;}
</style>
<path class="st0" d="M8,0h34c4.4,0,8,3.6,8,8v34c0,4.4-3.6,8-8,8H8c-4.4,0-8-3.6-8-8V8C0,3.6,3.6,0,8,0z"/>
<g>
	<path class="st1" d="M10.4,20.5c-1,0-1.9,0.3-2.7,0.7c-0.3,0.2-0.6,0.4-0.9,0.7v-7.2H3.2V35h3.5v-8.5c0-0.4,0-0.7,0.1-0.9
		c0.4-1,1.3-2,2.7-2c1.6,0,2.5,1.1,2.5,3.3V35h3.5v-8.4C15.5,22.1,12.7,20.5,10.4,20.5z"/>
	<path class="st1" d="M30.4,30.9V20.8h-3.5v8.6c0,0.4-0.1,0.7-0.2,1c-0.3,0.8-1.2,1.8-2.6,1.8c-1,0-2.4-0.4-2.4-3.6v-7.8h-3.5V29
		c0,5.9,3.9,6.3,5.1,6.3c1.9,0,3.1-0.8,3.9-1.6l0.1,1.3h3.3l0-0.6C30.4,33.4,30.4,32.2,30.4,30.9z"/>
	<path class="st1" d="M40.7,20.5c-1.6,0-3,0.5-4,1.4v-7.3h-3.5v16.4c0,1.2-0.1,2.5-0.1,3.4l0,0.6h3.2l0.1-1.2c1,1,2.4,1.5,4,1.5
		c3.2,0,6.5-2.6,6.5-7.6C46.8,23.5,44.3,20.5,40.7,20.5z M39.9,23.5c2.5,0,3.4,2.3,3.4,4.3c0,2.8-1.3,4.5-3.4,4.5
		c-1.5,0-2.7-0.9-3-2.4c-0.1-0.2-0.1-0.4-0.1-0.7v-2.3c0-0.3,0-0.6,0.1-0.9C37.2,24.6,38.5,23.5,39.9,23.5z"/>
</g>
</svg>
