<?xml version="1.0" encoding="utf-8"?>
<!-- Generator: Adobe Illustrator 27.9.0, SVG Export Plug-In . SVG Version: 6.00 Build 0)  -->
<svg version="1.1" id="Layer_1" xmlns="http://www.w3.org/2000/svg" xmlns:xlink="http://www.w3.org/1999/xlink" x="0px" y="0px"
	 viewBox="0 0 200 53" style="enable-background:new 0 0 200 53;" xml:space="preserve">
<style type="text/css">
	.st0{fill:none;}
	.st1{fill:#F8981D;}
	.st2{fill:#FFFFFF;}
</style>
<rect y="0" class="st0" width="200" height="53"/>
<g>
	<path class="st1" d="M185.4,50.3H133c-6.6,0-12-5.4-12-12V14.8c0-6.6,5.4-12,12-12h52.3c6.6,0,12,5.4,12,12v23.5
		C197.4,44.9,192,50.3,185.4,50.3z"/>
	<path class="st2" d="M142.1,19.6c-1.2-0.7-2.7-1-4.4-1c-2,0-3.8,0.6-5.4,1.8v-9.2h-5.2v30.3h5.2V29.2c0-1.5,0.2-2.7,0.5-3.5
		s0.9-1.4,1.6-1.8c0.8-0.5,1.6-0.7,2.5-0.7c1.2,0,2,0.3,2.6,0.9s0.9,1.7,0.9,3.3v14h5.2v-14c0-2.2-0.3-3.8-0.8-5
		C144.3,21.2,143.4,20.2,142.1,19.6z"/>
	<path class="st2" d="M162.6,31c0,1.7-0.2,2.9-0.5,3.7s-0.8,1.4-1.6,1.8c-0.8,0.5-1.6,0.7-2.5,0.7s-1.6-0.2-2.2-0.6
		c-0.6-0.4-0.9-1-1.1-1.7c-0.1-0.4-0.2-1.3-0.2-3.5V19h-5.2v13.7c0,1.6,0.1,2.7,0.2,3.4c0.2,1.1,0.6,2.1,1.2,2.9
		c0.6,0.8,1.5,1.5,2.7,2s2.4,0.8,3.8,0.8c2.3,0,4.2-0.7,5.7-2.1v1.7h4.8V19h-5.2v12H162.6z"/>
	<path class="st2" d="M190.6,25.4c-0.4-1.4-1.1-2.6-1.9-3.6c-0.8-1-1.9-1.8-3.1-2.4c-1.2-0.6-2.6-0.8-4-0.8c-1.8,0-3.5,0.5-4.9,1.6
		v-9h-5.2v30.3h4.9v-1.3c1.3,1.1,3,1.7,4.9,1.7c2.7,0,5-1.1,6.9-3.2c1.9-2.1,2.9-5.1,2.9-8.8C191.3,28.3,191,26.8,190.6,25.4z
		 M181.3,23.1c1.3,0,2.3,0.5,3.3,1.6c0.9,1.1,1.4,3,1.4,5.5c0,2.4-0.5,4.3-1.5,5.4c-1,1.1-2.1,1.7-3.3,1.7c-1.6,0-2.8-0.8-3.8-2.3
		c-0.6-1-0.9-2.6-0.9-5c0-2.3,0.5-4.1,1.5-5.3C178.9,23.7,180,23.1,181.3,23.1z"/>
</g>
<g>
	<path class="st2" d="M22.4,33.5c-0.2-0.5-7.9-22.3-7.9-22.3H6.9V41h5.6V21.2L19.7,41h4.8l7.2-19.6V41h5.6V11.2h-6.9
		C30.5,11.2,22.6,32.9,22.4,33.5z"/>
	<path class="st2" d="M51.3,18.5c-2.9,0-5.4,0.8-7.4,2.5c-2.4,2-3.7,5-3.7,9c0,3.7,1,6.5,3.1,8.5c2,2,4.7,3,8,3c2,0,4-0.5,5.7-1.4
		c1.8-0.9,3.1-2.2,4-3.8c0.9-1.6,1.4-3.8,1.4-6.6c0-3.4-1-6.2-3.1-8.2C57.2,19.5,54.5,18.5,51.3,18.5z M51.3,37
		c-1.6,0-2.9-0.5-3.9-1.7c-1.1-1.1-1.6-2.9-1.6-5.3s0.5-4.2,1.6-5.3c1.1-1.1,2.3-1.7,3.9-1.7c1.6,0,2.8,0.5,3.9,1.7
		c1.1,1.1,1.6,2.9,1.6,5.2c0,2.5-0.5,4.3-1.6,5.4C54.2,36.5,52.9,37,51.3,37z"/>
	<path class="st2" d="M74.1,32c-0.2,0.5-0.4,1-0.5,1.4c-0.2-0.6-0.4-1.1-0.6-1.6L68.1,19h-5.8l9,22.1h4.7L84.9,19h-5.7L74.1,32z"/>
	<rect x="86" y="19" class="st2" width="5.4" height="22.1"/>
	<rect x="86" y="11.2" class="st2" width="5.4" height="5.6"/>
	<path class="st2" d="M115.9,30c0-3.6-1-6.4-3-8.4c-2-2-4.6-3.1-7.8-3.1c-3.2,0-5.9,1-8,3.1c-2,2-3.1,4.9-3.1,8.6c0,3.5,1,6.3,3,8.3
		c2,2,4.8,3,8.2,3c2.9,0,5.2-0.7,6.8-1.9c0.8-0.7,1.5-1.3,2-1.9c0.5-0.6,0.9-1.5,1.3-2.5l0.4-1.1l-5.8,0l-0.2,0.6
		c-0.2,0.6-0.3,0.7-0.4,0.8c-0.1,0.1-0.3,0.3-1,0.8c-0.8,0.6-1.8,0.8-2.9,0.8c-1.6,0-2.9-0.5-3.9-1.5c-0.9-0.9-1.5-2.2-1.7-3.8h16.1
		L115.9,30z M110.2,27.2H100c0.2-1.2,0.7-2.1,1.5-2.9c1-0.9,2.2-1.4,3.7-1.4c1.6,0,2.9,0.6,3.9,1.7C109.6,25.3,110,26.1,110.2,27.2z
		"/>
</g>
</svg>
